<?xml version="1.0" encoding="utf-8"?>
<!-- Generator: Adobe Illustrator 19.0.0, SVG Export Plug-In . SVG Version: 6.00 Build 0)  -->
<svg version="1.1" id="Exhausted" xmlns="http://www.w3.org/2000/svg" xmlns:xlink="http://www.w3.org/1999/xlink" x="0px" y="0px"
	 viewBox="0 0 100 100" enable-background="new 0 0 100 100" xml:space="preserve">
<g id="XMLID_35_" opacity="0.5">
	<path id="XMLID_40_" fill-rule="evenodd" clip-rule="evenodd" fill="#00A099" d="M43.2,39.4c-0.7,17.2,23.7,24.2,32.2,9.3
		c6.8-11.8-1.2-23.2-11.9-25.3C53.9,21.5,43.7,27.5,43.2,39.4z M32.6,49.3c-5.2,2.1-15.3,16.6-13.7,25.9c1.1,6.3,8.3,8.3,16.2,10.6
		c4.1,1.2,8.5,2.5,12.8,3.7c7.4,2.1,19.5,6.5,24.2,5.2c10-2.7,11.6-25.5,6.9-32c-1.2-1.6-4.5-4.3-6.9-4.7c-3.1-0.5-7.3,1.9-9.2,2.1
		c-4.8,0.5-11.3-1.1-15.6-4.5c-2.4-1.9-4.5-6-7.8-6.7C37.5,48.5,34.7,48.5,32.6,49.3z"/>
	<path id="XMLID_23_" fill-rule="evenodd" clip-rule="evenodd" fill="#00A099" d="M63.5,23.4c10.7,2.1,18.7,13.5,11.9,25.3
		c-8.5,14.9-33,7.9-32.2-9.3C43.7,27.5,53.9,21.5,63.5,23.4z"/>
	<path id="XMLID_22_" fill-rule="evenodd" clip-rule="evenodd" fill="#00A099" d="M39.5,48.9c3.3,0.7,5.5,4.8,7.8,6.7
		c4.2,3.4,10.8,5,15.6,4.5c1.9-0.2,6-2.6,9.2-2.1c2.4,0.4,5.8,3,6.9,4.7c4.7,6.6,3.1,29.3-6.9,32c-4.7,1.3-16.8-3.1-24.2-5.2
		c-4.3-1.2-8.8-2.5-12.8-3.7c-7.8-2.3-15-4.3-16.2-10.6c-1.6-9.3,8.5-23.8,13.7-25.9C34.7,48.5,37.5,48.5,39.5,48.9z"/>
</g>
</svg>
