<?xml version="1.0" encoding="utf-8"?>
<!-- Generator: Adobe Illustrator 18.1.1, SVG Export Plug-In . SVG Version: 6.00 Build 0)  -->
<svg version="1.1" id="Laag_1" xmlns="http://www.w3.org/2000/svg" xmlns:xlink="http://www.w3.org/1999/xlink" x="0px" y="0px"
	 viewBox="0 560 1000 1000" enable-background="new 0 560 1000 1000" xml:space="preserve">
<g>
	<path fill="none" d="M776.9,1315.8c-66.4-11-147.2,0.2-180.7,25.2s-6.8,54.1,59.3,65c66.4,11,147.2-0.2,180.7-25.2
		C869.8,1355.9,843.3,1326.7,776.9,1315.8z M791.6,1373.4c-20.4,15.1-69.6,21.9-109.9,15.3c-40.3-6.6-56.5-24.3-36.1-39.6
		c20.4-15.1,69.6-21.9,109.9-15.3C795.8,1340.5,812,1358.3,791.6,1373.4z"/>
	<path opacity="0.1" fill="#787473" enable-background="new    " d="M499.5,1524.3c0,0-0.2,0.2-0.4,0.2c0,0-5.9-14.5-10.1-36.6
		c-46,2-81.5,16.2-81.5,33.3c0,18.6,41.6,33.7,92.9,33.7s92.9-15.1,92.9-33.7c0-5.7-4.4-11.2-11.4-16
		c-48.6,12.3-82.1,19.3-82.1,19.3C499.5,1524.5,499.5,1524.3,499.5,1524.3z"/>
	<g opacity="0.5">
		<path fill="#009990" d="M803,1298.5c-98.8-16.4-219.4,0.4-269.4,37.4l0,0c-0.4,0.2-1.8,1.1-3.7,3.3c-4.4,3.9-12.5,11.8-14.5,15.5
			c-34.2,45.6-32.9,98.6-26.5,132.9c3.9,22.1,10.1,36.6,10.1,36.6c0.2,0,0.2,0,0.4-0.2v0.2c0,0,33.5-7,82.1-19.3
			c79.7-20.1,199.9-53.9,279.9-92.9c6.6-2.8,18.8-10.1,25-13.8c3.3-2,4.6-2.8,5-3.1l0,0C941.6,1358.3,901.8,1314.9,803,1298.5z
			 M836.3,1380.8c-33.5,25-114.3,36.1-180.7,25.2s-92.9-40.1-59.3-65s114.3-36.4,180.7-25.2C843.3,1326.7,869.8,1355.9,836.3,1380.8
			z"/>
		<path fill="#575756" d="M755.5,1334c-40.3-6.8-89.6,0.2-109.9,15.3c-20.4,15.1-4.2,32.9,36.1,39.6c40.3,6.6,89.6-0.2,109.9-15.3
			C812,1358.3,795.8,1340.5,755.5,1334z"/>
	</g>
	<path fill="#009990" d="M785.3,850.4v-0.2c0-157.5-127.7-285.1-284.9-285.1l0,0c-157.5,0-284.9,127.7-284.9,284.9v0.2
		c0,1.1,0,5.3,1.1,13.6c1.5,16.4,4.8,48.4,8.3,62.2c58,291.5,275.1,596.8,275.1,596.8c0.2-0.2,0.2-0.4,0.4-0.7
		c0.2,0.2,0.2,0.4,0.4,0.7c0,0,217-305.3,275.1-596.8c3.7-13.8,6.8-45.6,8.3-62.2C785.3,855.5,785.3,851.3,785.3,850.4z
		 M496.6,1022.6c-105.6,0-191.2-85.6-191.2-191.2s85.6-191.2,191.2-191.2s191.2,85.6,191.2,191.2
		C687.8,936.9,602.2,1022.6,496.6,1022.6z"/>
	<circle fill="#575756" cx="499.3" cy="831.4" r="116.3"/>
</g>
</svg>
