<?xml version="1.0" encoding="utf-8"?>
<!-- Generator: Adobe Illustrator 19.0.0, SVG Export Plug-In . SVG Version: 6.00 Build 0)  -->
<svg version="1.1" id="Tired" xmlns="http://www.w3.org/2000/svg" xmlns:xlink="http://www.w3.org/1999/xlink" x="0px" y="0px"
	 viewBox="0 0 100 100" enable-background="new 0 0 100 100" xml:space="preserve">
<g id="XMLID_74_" opacity="0.65">
	<path id="XMLID_77_" fill-rule="evenodd" clip-rule="evenodd" fill="#00A099" d="M33.4,44.1c4.1,16.7,29.5,16.7,33.5,0
		c3.2-13.2-7.6-22-18.5-21C38.7,24,30.6,32.6,33.4,44.1z M26,56.6c-4.4,3.5-10.1,20.2-6,28.7c2.8,5.8,10.3,5.7,18.5,5.7
		c4.2,0,8.9,0,13.4,0c7.7,0,20.5,0.8,24.7-1.7c8.9-5.4,4.1-27.7-2.3-32.7c-1.6-1.2-5.5-2.9-8-2.6c-3.2,0.4-6.5,3.8-8.2,4.5
		c-4.5,1.8-11.2,2.1-16.2,0c-2.8-1.2-6-4.5-9.4-4.3C30.5,54.5,27.7,55.3,26,56.6z"/>
	<path id="XMLID_76_" fill-rule="evenodd" clip-rule="evenodd" fill="#00A099" d="M48.4,23.1c10.8-1,21.7,7.8,18.5,21
		c-4,16.7-29.5,16.7-33.5,0C30.6,32.6,38.7,24,48.4,23.1z"/>
	<path id="XMLID_75_" fill-rule="evenodd" clip-rule="evenodd" fill="#00A099" d="M32.5,54.3c3.4-0.2,6.6,3.1,9.4,4.3
		c5,2.1,11.7,1.8,16.2,0c1.8-0.7,5.1-4.2,8.2-4.5c2.5-0.3,6.4,1.3,8,2.6c6.4,5,11.2,27.3,2.3,32.7c-4.2,2.5-17,1.7-24.7,1.7
		c-4.5,0-9.1,0-13.4,0c-8.1,0-15.6,0.1-18.5-5.7c-4.2-8.5,1.5-25.2,6-28.7C27.7,55.3,30.5,54.5,32.5,54.3z"/>
</g>
</svg>
